<?xml version="1.0" standalone="no"?>
<!DOCTYPE svg PUBLIC "-//W3C//DTD SVG 20010904//EN"
 "http://www.w3.org/TR/2001/REC-SVG-20010904/DTD/svg10.dtd">
<svg version="1.0" xmlns="http://www.w3.org/2000/svg"
 width="512.000000pt" height="512.000000pt" viewBox="0 0 512.000000 512.000000"
 preserveAspectRatio="xMidYMid meet">
<metadata>
Created by potrace 1.11, written by Peter Selinger 2001-2013
</metadata>
<g transform="translate(0.000000,512.000000) scale(0.100000,-0.100000)"
fill="#000000" stroke="none">
<path d="M2829 5115 c-2 -2 -29 -6 -59 -9 -72 -8 -103 -14 -170 -32 -30 -8
-65 -17 -77 -20 -12 -2 -35 -9 -50 -16 -16 -6 -30 -12 -33 -13 -3 -1 -21 -9
-40 -17 -19 -9 -38 -14 -42 -12 -5 3 -8 1 -8 -4 0 -5 -22 -19 -50 -32 -27 -13
-50 -27 -50 -32 0 -4 -6 -8 -14 -8 -19 0 -131 -83 -183 -135 -24 -24 -43 -40
-43 -37 0 4 -8 -5 -17 -18 -9 -14 -25 -31 -35 -38 -10 -7 -18 -18 -18 -24 0
-6 -8 -18 -17 -27 -10 -9 -24 -25 -31 -36 -48 -76 -57 -91 -54 -97 1 -5 -3 -8
-8 -8 -9 0 -34 -49 -30 -59 1 -2 -2 -7 -8 -10 -25 -17 -91 -230 -107 -346 -10
-70 -4 -258 11 -353 3 -20 7 -50 9 -65 3 -16 7 -32 10 -36 2 -5 -7 -21 -21
-37 -31 -36 -69 -103 -79 -140 -5 -16 -10 -36 -12 -44 -22 -78 -8 -282 21
-319 6 -8 10 -15 8 -15 -7 -2 12 -43 36 -74 28 -39 101 -94 113 -86 5 3 9 -5
10 -18 0 -13 2 -30 4 -38 13 -51 18 -77 17 -92 0 -10 2 -18 6 -18 4 0 9 -12
10 -27 1 -16 10 -50 19 -78 9 -27 16 -52 16 -55 -1 -3 4 -14 10 -25 6 -11 12
-26 13 -33 1 -8 15 -39 30 -70 15 -32 27 -60 26 -64 -1 -5 3 -8 9 -8 5 0 7 -4
4 -10 -3 -5 -2 -10 2 -10 5 0 14 -15 21 -33 7 -18 21 -43 32 -55 12 -12 18
-22 15 -22 -3 0 -1 -6 5 -12 6 -7 32 -42 59 -78 26 -36 71 -89 99 -117 28 -29
50 -54 49 -54 -1 -1 -429 -3 -952 -4 -522 -1 -961 -5 -975 -8 -14 -3 -36 -9
-50 -12 -14 -3 -36 -8 -49 -11 -14 -3 -31 -13 -39 -22 -7 -9 -10 -11 -7 -3 11
20 -43 -17 -88 -60 -51 -50 -76 -126 -72 -215 2 -38 6 -76 8 -84 16 -63 21
-77 31 -89 6 -8 9 -15 7 -15 -6 -1 20 -79 30 -91 5 -5 9 -18 9 -30 0 -12 4
-25 8 -30 5 -6 23 -53 41 -105 17 -52 36 -104 42 -115 6 -12 11 -27 12 -35 2
-8 5 -19 8 -25 4 -5 12 -31 20 -57 7 -27 16 -48 20 -48 3 0 6 -6 6 -13 0 -8 9
-38 21 -68 29 -75 53 -141 112 -309 28 -80 55 -154 60 -165 5 -11 14 -38 21
-60 21 -72 65 -160 98 -198 35 -39 114 -97 140 -102 9 -2 36 -8 61 -14 31 -7
699 -11 2132 -11 l2086 0 -3 407 c-1 225 -5 422 -8 438 -14 78 -20 101 -28
118 -5 9 -7 17 -3 17 3 0 -1 11 -10 25 -9 14 -14 25 -10 25 4 0 1 7 -6 15 -7
8 -9 15 -4 15 5 0 5 4 -1 8 -17 12 -55 89 -48 96 3 3 2 6 -4 6 -6 0 -22 18
-37 41 -36 53 -183 199 -202 199 -3 0 -24 13 -47 28 -49 33 -131 72 -151 72
-8 0 -18 5 -21 10 -3 6 -16 10 -29 10 -12 0 -26 3 -30 7 -18 18 -132 25 -441
27 l-289 1 -1 163 c0 89 3 162 8 162 4 0 7 6 7 14 0 8 8 17 19 21 21 6 161
140 208 200 80 99 135 181 142 210 1 6 8 17 14 25 23 29 87 172 87 194 0 9 4
16 9 16 5 0 11 12 14 28 3 15 12 52 21 82 9 30 19 66 21 80 2 14 9 40 14 58
12 39 11 35 11 73 0 18 4 28 10 24 13 -8 88 47 112 82 79 117 103 290 62 438
-11 38 -55 122 -76 144 -17 19 -19 30 -13 74 4 29 8 135 8 237 1 146 -2 202
-17 265 -10 44 -21 84 -24 90 -4 5 -7 12 -7 15 -1 20 -53 134 -77 171 -10 14
-15 29 -11 33 3 3 1 6 -5 6 -7 0 -12 7 -12 15 0 7 -8 19 -17 24 -10 6 -13 11
-8 11 7 0 7 3 0 8 -6 4 -23 26 -39 50 -16 24 -53 69 -82 100 -29 31 -53 60
-54 65 0 4 -4 7 -9 7 -5 0 -24 15 -43 33 -55 53 -97 87 -108 87 -5 0 -10 5
-10 10 0 6 -7 10 -15 10 -8 0 -15 4 -15 9 0 5 -8 11 -17 15 -22 7 -77 39 -98
56 -8 7 -15 9 -15 6 0 -4 -13 2 -29 13 -16 12 -34 21 -39 21 -6 0 -32 9 -59
21 -68 29 -191 62 -273 74 -50 7 -366 16 -371 10z"/>
</g>
</svg>
